<?xml version="1.0" encoding="utf-8"?>
<!-- Generator: Adobe Illustrator 23.0.2, SVG Export Plug-In . SVG Version: 6.00 Build 0)  -->
<svg version="1.1" id="Layer_1" xmlns="http://www.w3.org/2000/svg" xmlns:xlink="http://www.w3.org/1999/xlink" x="0px" y="0px"
	 viewBox="0 0 32 32" style="enable-background:new 0 0 32 32;" xml:space="preserve">
<style type="text/css">
	.st0{fill:#000;}
</style>
<path class="st0" d="M13,21c-1.7,0-3,1.3-3,3s1.3,3,3,3s3-1.3,3-3S14.7,21,13,21z M13,25c-0.6,0-1-0.4-1-1s0.4-1,1-1s1,0.4,1,1
	S13.6,25,13,25z M22,21c-1.7,0-3,1.3-3,3s1.3,3,3,3s3-1.3,3-3S23.7,21,22,21z M22,25c-0.6,0-1-0.4-1-1s0.4-1,1-1s1,0.4,1,1
	S22.6,25,22,25z M25.7,10l-2.4,9H10.8L8.2,8.5C7.9,7.6,7.1,7,6.2,7H4C3.5,7,3,7.5,3,8s0.5,1,1,1h2.2l2.6,10.5c0.2,0.9,1,1.5,1.9,1.5
	h12.5c0.9,0,1.7-0.6,1.9-1.5l2.6-9.5H25.7z"/>
</svg>
