<?xml version="1.0" encoding="utf-8"?>
<!-- Generator: Adobe Illustrator 23.0.2, SVG Export Plug-In . SVG Version: 6.00 Build 0)  -->
<svg version="1.1" id="Layer_1" xmlns="http://www.w3.org/2000/svg" xmlns:xlink="http://www.w3.org/1999/xlink" x="0px" y="0px"
	 viewBox="0 0 488.3 285.1" style="enable-background:new 0 0 488.3 285.1;" xml:space="preserve">
<style type="text/css">
	.st0{fill:#FF5C5C;}
</style>
<title>logo</title>
<path class="st0" d="M227.6,146.7c-0.3-28.7-0.5-57.4-0.8-86.1h-0.2c0-2.6,0-5.2,0-7.9s0.1-5.4,0-8.1c-0.1-4.7-5.1-8.7-9.6-7.8
	c-4,0.8-7.9,1.8-11.9,2.6c-8.8,1.9-17.6,3.8-26.4,5.8c-7.4,1.6-14.8,3.2-22.2,4.8c-8.2,1.8-16.4,3.6-24.6,5.3
	c-9.3,1.9-18.6,3.6-27.9,5.5c-13,2.7-25.9,5.4-38.9,8.1c-8.7,1.8-17.3,3.6-26,5.4c-9.7,2-19.4,4.2-29.2,5.9c-7.2,1.3-10,4-10,11
	c0,22.9,0,45.7,0,68.6c0,12.7,0.2,25.5,0.2,38.2c0,6.6-0.1,13.1,0.1,19.6c0.2,4.6,2.5,7.1,7.1,7.9c6.7,1.1,13.4,2.1,20,3.1
	c6.5,1,13,2,19.6,3c11.8,1.9,23.5,3.9,35.2,5.9c4,0.7,8,1.6,12,2.3c1.7,0.3,2.2,1.2,2.2,2.7c0,2.9,0,5.8,0,8.7c0,5.1,0,4.9-5.3,4.4
	c-6.4-0.6-13-1.4-19.4-1c-7.7,0.5-15.3,2.3-23,3.7c-2.6,0.5-5.2,1.2-7.8,2.2c-0.9,0.5-1.5,1.4-1.7,2.4c-0.1,0.6,1.1,1.6,1.8,1.9
	c6.6,1.8,13.2,3.6,19.8,5.2c6.2,1.5,12.4,2.8,18.6,4.1c7.1,1.5,14.2,3.1,21.3,4.6c5,1.1,10,2.2,15.1,3.1c7.1,1.2,14.2,2.3,21.4,3.1
	c5.9,0.6,11.9-0.2,17.5-2.3c5.9-2.1,12-3.5,18-5.4c1.3-0.4,2.2-1.8,3.2-2.7c-0.9-0.9-1.8-2.3-2.9-2.6c-8.5-2.5-17.1-4.9-25.7-7.2
	c-4.9-1.3-9.9-2.2-14.7-3.5c-0.8-0.2-1.9-1.2-1.9-1.9c-0.2-3.7-0.1-7.3-0.3-11c-0.1-1.7,0.6-2.3,2.2-2.1c6.7,1,13.4,1.9,20,3
	c6.4,1,12.8,2.3,19.2,3.4c9.5,1.6,19,3,28.6,4.5c6.8,1.1,13.6,2.7,20.6,0.6c3.9-1.1,8.1-4.7,8-9.2c-0.6-20.3-0.9-40.6-1.2-60.9
	C227.8,173.9,227.7,160.3,227.6,146.7z M81.9,112.3c0,0.6-1.5,1.6-2.5,1.7c-7.4,1-14.9,1.8-22.4,2.6c-4.5,0.5-4.5,0.4-4.5,4.7
	c-0.1,25.9-0.2,51.8-0.3,77.8c0,3.7,0,3.7-3.7,3.5c-4.3-0.3-8.7-0.8-13-1.1c-2.2-0.1-2.1-1.5-2.1-2.9c0.1-9.9,0.1-19.7,0.2-29.6
	c0.1-15.6,0.2-31.2,0.2-46.9v-2.8l-12.7,1.4c-2.9,0.3-5.8,0.6-8.6,1c-1.8,0.3-2.7-0.2-2.7-2.1c0.1-3.9,0.1-7.8,0-11.8
	c0-1.5,0.6-2.2,2.2-2.4c19.1-2.9,38.1-5.8,57.1-8.7l12.8-1.9C82.1,101.1,82.1,106.7,81.9,112.3z M211.1,77.5
	c-6.8,16.5-13.7,33-20.6,49.5c-10,24.1-20,48.3-30,72.4c-1.4,3.2-2.7,6.5-4,9.7c-0.4,1.4-1.8,2.3-3.2,2c-8.5-0.8-17-1.4-25.4-2.2
	c-1.2-0.4-2.1-1.2-2.6-2.4c-6.6-17.7-13-35.5-19.5-53.3c-6.7-18.4-13.4-36.7-20.1-55.1c-0.4-1-0.7-2.1-1.2-3.7
	c4.1-0.7,7.7-1.3,11.4-1.8s7.4-1,11-1.7c2.1-0.4,3.1,0.1,3.8,2.1c4.9,13.7,10,27.3,15,40.9l15.1,40.9c0.1,0.3,0.3,0.6,0.7,1.5
	c1.9-5,3.6-9.6,5.2-14.1c9.6-26.3,19.2-52.7,28.7-79c0.5-1.9,2.2-3.3,4.1-3.4c10.1-1.5,20.2-3.1,30.3-4.7c0.7,0,1.3,0,2,0
	C211.4,76.1,211.3,76.9,211.1,77.5L211.1,77.5z"/>
<path class="st0" d="M484.5,73.6c-14.2-2.1-28.4-4.4-42.6-6.6c-5.6-0.9-11.2-1.7-17.1-2.6c-0.1,1.2-0.1,2.1-0.2,3
	c-0.3,4.8-3.6,8.8-8.3,9.9c-4.6,1-9.4-1-11.9-5.1c-1.3-2.4-2-5.2-2.1-7.9c-0.1-2.7-0.8-3.8-3.7-4.2c-15.4-2.3-30.8-4.7-46.1-7.1
	c-2.6-0.4-5.3-0.7-8.4-1.1c0,2.5,0.1,4.7,0,6.8c-0.1,3.7-2.2,7.1-5.6,8.7c-7.2,3.6-16.6-2-16.8-10c-0.1-2.4-0.1-4.7,0-7.1
	c0-1.4-0.5-2-2-2.3c-4-0.6-8-1.3-12.1-1.9c-16.9-2.7-33.8-5.3-50.7-7.9c-4.5-0.7-9.1-1.3-14.3-2v6.1c0,70.8,0,141.6,0,212.4
	c0,3.8,0,3.7,3.8,3.3c10.6-1.3,21.2-2.6,31.8-3.9c21.4-2.6,42.8-5.1,64.1-7.7c18.7-2.3,37.4-4.6,56-6.9c28.4-3.4,56.8-6.8,85.2-10.2
	c2.6-0.3,3.5-1.2,3.5-3.8c0-12.9,0.3-25.8,0.4-38.8c0.3-36.4,0.5-72.8,0.8-109.2C488.3,74.8,487.2,74,484.5,73.6z M308,199.2
	c-4.2,5.1-10.1,8.5-16.6,9.8c-7.5,1.6-15,2-22.3-0.4c-12.7-4.3-18.3-14-20.9-26c-0.1-0.6,0.9-1.8,1.6-2c5.5-1.4,11.1-2.5,16.6-3.8
	c1.7-0.4,2.6-0.2,2.8,1.6c0.1,0.6,0.3,1.2,0.5,1.8c2.9,10.7,14.7,14.6,24,8.1c3.3-2.3,4.9-7.6,3-11.1c-0.7-1.3-1.9-2.3-3.3-2.9
	c-5.1-1.9-10.3-3.3-15.4-5.1c-3.6-1.2-7.1-2.7-10.5-4.2c-8.8-3.8-13.7-10.4-15.1-19.4c-1.1-7.3-0.6-14.5,3-21.2
	c5.3-9.9,13.4-14.3,27.9-14.2c5.8,0.2,13.1,1.1,19.3,5.3c6.9,4.7,9.8,11.7,11.4,19.3c0.1,0.5-0.7,1.6-1.3,1.8
	c-4.5,1.1-9,2.1-13.5,3.1c-1.1,0.4-2.3-0.1-2.7-1.2c-0.1-0.1-0.1-0.3-0.1-0.4c-3.2-8.7-11.4-12.2-20.5-8.7c-2.8,1.1-4.5,2.8-4.7,5.8
	c-0.3,2.8,1.3,5.4,3.9,6.3c5.6,2.3,11.3,4.1,16.9,6.4c4.7,1.8,9.2,4,13.6,6.4c4.6,2.5,7.9,6.8,9.1,11.9
	C317.7,178.3,316.1,189.4,308,199.2z M376.4,202.6c-3.5,0.1-7.1,0.3-10.6,0.6c-2.3,0.2-3-0.6-2.9-2.8c0.1-16.9,0.1-33.9,0-50.8
	c0-3.4-0.4-6.8-1.1-10.1c-0.7-3.5-2.9-6.3-6.8-7c-4.6-0.7-8.2,1.2-10.5,5c-2.7,4.3-3.5,9.2-3.6,14.1c-0.4,16.5-0.5,33-0.7,49.5
	c0,3.7,0,3.7-3.8,3.9c-3.5,0.2-7.1,0.4-10.6,0.7c-2.5,0.3-3.3-0.5-3.3-3c0.4-25.1,0.6-50.3,0.9-75.4c0.2-14.1,0.3-28.3,0.5-42.4
	c0-3.5,0.1-3.5,3.7-3.2s7,0.9,10.5,1.1c2.4,0.1,3,0.9,3,3.2c-0.2,12.1-0.2,24.3-0.3,36.4c0,0.8,0,1.7,0,2.5l0.6,0.1
	c1-1.1,1.9-2.3,2.9-3.4c10.6-11.8,25.5-6.9,30.5,4c2.2,4.8,3.4,9.9,3.6,15.1c0.5,19.8,0.4,39.6,0.5,59.4
	C378.8,201.9,378.1,202.6,376.4,202.6L376.4,202.6z M429,189.3c-3.7,6.1-8.5,11-16.1,12.3c-8.4,1.4-15.1-2-20.5-7.9s-7.7-13.4-9-21
	c-2.1-12.5-2-24.9,2.9-36.9c1.6-4.2,4-8,7-11.4c9.4-10,23.5-9.2,32.2,1.4c6.2,7.6,9,16.4,10,25.9c0.3,2.7,0.4,5.4,0.5,8.1
	C436,170.2,434.5,180.2,429,189.3z M479,185.6c-1.3,3.5-3.3,6.6-5.8,9.3c-5,5.4-11.8,5.1-16.7-0.4c-1.2-1.4-2.3-2.9-4-5
	c0,1.7,0,2.7,0,3.6c0.2,10.4,0.3,20.8,0.6,31.1c0.1,2.4-0.8,3.3-3.2,3.3c-2.3,0-4.5,0.2-6.8,0.6c-2.3,0.4-3.1-0.3-3.1-2.5
	c0-7.9-0.3-15.9-0.4-23.8c-0.4-25.8-0.8-51.7-1.3-77.5c0-2.6,0.6-3.5,3.3-3.1c2.2,0.2,4.3,0.3,6.5,0.3c1.5,0,2.1,0.7,2.1,2.1
	c0,2.1,0,4.3,0,6.9c1.8-2.3,3.6-4.6,5.7-6.7c3.9-3.7,8.9-4,13.4-1c4.4,3,7.6,7.4,9.1,12.4C484,151.9,484.7,168.8,479,185.6z"/>
<path class="st0" d="M329,64.4c4.1,2.7,9.1,1.5,11.1-2.9c0.6-1.5,0.9-3.2,0.9-4.8c0.1-6.8-0.7-13.6,2-20.2
	c5.2-12.7,18.4-22.9,36.3-17.7c9.2,2.7,15.5,8.7,20.4,16.3c4.5,7,6,14.7,5.6,22.8c0,3-0.4,6.1,0.1,9.1c0.6,4.5,4.6,7.8,9.2,7.6
	c4-0.4,6.7-3.7,7-8.7c0-0.3,0-0.7,0-1c-0.2-4.5-0.2-9.1-0.6-13.6c-1.5-16.2-8.5-29.9-21.7-40.2C388.2,2.6,375.6-2.1,361,0.9
	c-16.8,3.4-27.3,13.5-33.1,28.7c-3.4,8.9-3.6,18.3-3.3,27.6C324.8,60.2,326.4,62.9,329,64.4z"/>
<path class="st0" d="M470.7,157.9c-0.3-5.9-0.6-11.9-3.8-17.2c-1.4-2.3-3.1-4.2-6.1-4.1c-2.7,0-5.1,1.8-6,4.3
	c-1.3,2.9-2.2,6-2.6,9.2c-0.9,9.1-0.9,18.2,3,26.8c1.3,2.9,3.2,5.8,7.1,5.6c3.9-0.2,5.3-3.4,6.7-6.4c0.1-0.2,0.2-0.5,0.2-0.8
	l2.1-14.7l-0.6-0.1C470.7,159.6,470.7,158.8,470.7,157.9z"/>
<path class="st0" d="M415.8,137.9c-3.7-4.2-9.1-3.9-12.6,0.4c-1.7,2-3,4.3-3.7,6.9c-1.1,4.4-1.6,9.1-2.3,13.6l0.4,0.1
	c0.1,2.1,0.1,4.2,0.3,6.3c0.5,5.3,1.6,10.3,4.9,14.7c4,5.3,10.6,5.3,14.5-0.1c1.1-1.5,2.1-3.3,2.7-5.1c3-9.4,3.1-19.4,0.2-28.9
	C419.4,142.9,417.9,140.2,415.8,137.9z"/>
</svg>
