<svg id="Layer_1" data-name="Layer 1" xmlns="http://www.w3.org/2000/svg" viewBox="0 0 488.26 285.15"><defs><style>.cls-1{fill:#17a2b8;}</style></defs><title>logo</title><path class="cls-1" d="M274.66,151.83q-.39-43.07-.8-86.11h-.17c0-2.62,0-5.24,0-7.86s.07-5.41,0-8.12c-.15-4.7-5.06-8.71-9.58-7.81-4,.8-7.93,1.76-11.89,2.62q-13.2,2.89-26.41,5.76c-7.41,1.61-14.83,3.17-22.24,4.77-8.21,1.77-16.4,3.61-24.63,5.3-9.27,1.9-18.58,3.6-27.85,5.5-13,2.66-25.94,5.44-38.91,8.14q-13,2.72-26,5.38c-9.71,2-19.39,4.16-29.15,5.92-7.23,1.3-10,4-10,11q0,34.3,0,68.6c0,12.74.16,25.48.24,38.22,0,6.55-.08,13.1.13,19.64.15,4.63,2.46,7.08,7.13,7.87,6.66,1.13,13.35,2.11,20,3.14,6.51,1,13,2,19.55,3q17.64,2.89,35.25,5.93c4,.69,8,1.58,12,2.28,1.7.29,2.2,1.21,2.17,2.73,0,2.88,0,5.77,0,8.65,0,5.08,0,4.9-5.31,4.44-6.45-.56-13-1.42-19.4-1-7.71.55-15.33,2.29-23,3.66a46.67,46.67,0,0,0-7.77,2.17A3.29,3.29,0,0,0,86.36,268c-.06.57,1.06,1.65,1.84,1.87,6.57,1.83,13.16,3.6,19.79,5.21,6.19,1.5,12.43,2.79,18.65,4.15q10.67,2.32,21.34,4.6c5,1.06,10,2.23,15.07,3.08,7.11,1.2,14.24,2.32,21.4,3.14a39,39,0,0,0,17.5-2.31c5.89-2.07,12-3.5,18-5.42,1.25-.41,2.16-1.78,3.24-2.7-.95-.91-1.75-2.32-2.88-2.65q-12.76-3.79-25.67-7.2c-4.87-1.3-9.85-2.24-14.73-3.5-.78-.21-1.85-1.23-1.89-1.93-.23-3.65-.07-7.32-.26-11-.09-1.71.58-2.29,2.16-2.07,6.68,1,13.37,1.92,20,3,6.4,1,12.77,2.32,19.17,3.37,9.51,1.56,19,3,28.57,4.5,6.84,1.06,13.58,2.68,20.62.56,3.86-1.15,8.12-4.71,8-9.15-.61-20.3-.91-40.6-1.22-60.91C274.84,179.06,274.79,165.44,274.66,151.83ZM129,117.46c0,.6-1.54,1.55-2.46,1.67q-11.16,1.45-22.38,2.64c-4.51.47-4.51.38-4.53,4.74q-.15,38.88-.32,77.77c0,3.66,0,3.73-3.72,3.49-4.33-.29-8.65-.81-13-1.06-2.23-.13-2.07-1.5-2.06-2.92.06-9.86.14-19.72.19-29.59q.14-23.43.22-46.87v-2.85l-12.66,1.39c-2.88.32-5.76.63-8.62,1-1.8.25-2.72-.15-2.66-2.14.11-3.92.1-7.85,0-11.78,0-1.53.62-2.16,2.16-2.39q28.58-4.31,57.15-8.67L129.11,100C129.11,106.16,129.18,111.82,129,117.46Zm129.1-34.84q-10.27,24.76-20.57,49.51-15,36.19-30,72.39c-1.35,3.24-2.73,6.46-4,9.73a2.76,2.76,0,0,1-3.24,2c-8.47-.77-17-1.37-25.43-2.24a4.11,4.11,0,0,1-2.62-2.37c-6.57-17.74-13-35.53-19.49-53.3q-10-27.54-20.07-55.06c-.38-1-.7-2.12-1.21-3.69,4.08-.66,7.71-1.26,11.35-1.83s7.36-1,11-1.71c2.06-.39,3.08.08,3.81,2.1,4.94,13.67,10,27.3,15,40.95l15.09,40.91c.12.31.28.6.68,1.46,1.87-5,3.58-9.55,5.24-14.1q14.4-39.49,28.73-79A4.53,4.53,0,0,1,226.48,85c10.12-1.46,20.21-3.11,30.31-4.67a17.76,17.76,0,0,1,2,0C258.5,81.24,258.37,82,258.09,82.62Z" transform="translate(-47.05 -5.11)"/><path class="cls-1" d="M531.53,78.68c-14.23-2.09-28.43-4.4-42.65-6.62-5.6-.87-11.22-1.68-17.11-2.56-.09,1.17-.15,2.11-.24,3a10.89,10.89,0,0,1-8.25,9.93,11.17,11.17,0,0,1-11.86-5.06,18.53,18.53,0,0,1-2.13-7.92c-.14-2.68-.83-3.75-3.72-4.18-15.4-2.25-30.76-4.74-46.14-7.13-2.64-.41-5.3-.72-8.36-1.13,0,2.49.09,4.65,0,6.8a9.81,9.81,0,0,1-5.59,8.7c-7.21,3.62-16.58-2-16.8-10q-.09-3.53,0-7.07c0-1.37-.5-2-2-2.25-4-.57-8-1.29-12.06-1.92q-25.33-4-50.68-7.91c-4.54-.7-9.1-1.3-14.31-2v6.12q0,106.2,0,212.4c0,3.75,0,3.74,3.76,3.27q15.9-2,31.81-3.88c21.38-2.57,42.77-5.07,64.15-7.66,18.69-2.26,37.36-4.64,56-6.91q42.6-5.16,85.2-10.21c2.56-.3,3.48-1.17,3.49-3.76,0-12.92.3-25.84.39-38.75.28-36.4.48-72.8.83-109.2C535.34,79.87,534.27,79.09,531.53,78.68ZM355,204.35a28.71,28.71,0,0,1-16.6,9.75c-7.47,1.59-15,2-22.27-.45-12.69-4.26-18.34-14-20.88-26-.12-.56.89-1.82,1.58-2,5.52-1.37,11.11-2.5,16.64-3.82,1.66-.4,2.63-.22,2.82,1.6a11.32,11.32,0,0,0,.45,1.78c2.86,10.66,14.69,14.65,24,8.1,3.25-2.29,4.86-7.6,3-11.08a6.56,6.56,0,0,0-3.28-2.86c-5.07-1.86-10.29-3.34-15.39-5.12-3.57-1.24-7.07-2.67-10.54-4.16-8.75-3.75-13.69-10.37-15.09-19.39-1.13-7.3-.6-14.48,3-21.19,5.28-9.9,13.41-14.27,27.94-14.21,5.78.2,13.06,1.09,19.3,5.35,6.87,4.68,9.76,11.69,11.41,19.29.11.49-.74,1.61-1.34,1.76-4.46,1.13-9,2.09-13.46,3.13a2.1,2.1,0,0,1-2.85-1.55c-3.24-8.72-11.43-12.16-20.45-8.68-2.75,1.06-4.49,2.84-4.71,5.83a5.91,5.91,0,0,0,3.93,6.28c5.58,2.28,11.34,4.14,16.91,6.42a125.27,125.27,0,0,1,13.64,6.35,18.28,18.28,0,0,1,9.12,11.92C364.7,183.36,363.16,194.55,355,204.35Zm68.44,3.38c-3.53.12-7.06.25-10.58.58-2.33.21-2.95-.65-2.94-2.79.06-16.93.09-33.86,0-50.79a52.22,52.22,0,0,0-1.09-10.11c-.73-3.54-2.86-6.33-6.82-7-4.62-.74-8.17,1.22-10.54,5-2.72,4.3-3.5,9.18-3.6,14.08-.35,16.49-.52,33-.74,49.48-.05,3.7,0,3.67-3.84,3.88-3.52.19-7.06.35-10.56.74-2.54.28-3.31-.53-3.28-3,.37-25.14.63-50.27.92-75.4q.24-21.21.47-42.41c0-3.5.06-3.52,3.7-3.15s7,.92,10.53,1.09c2.36.11,3.05.92,3,3.17-.19,12.13-.22,24.26-.3,36.39,0,.85,0,1.69,0,2.53l.6.14c1-1.15,1.9-2.31,2.9-3.43,10.56-11.81,25.5-6.89,30.45,4a40.13,40.13,0,0,1,3.6,15.14c.51,19.8.38,39.62.52,59.43C425.84,207,425.17,207.67,423.45,207.73ZM476,194.43c-3.67,6.11-8.47,11-16.06,12.25-8.42,1.4-15.07-2-20.47-7.86s-7.67-13.37-9-21c-2.09-12.51-2-24.95,2.92-36.89a37,37,0,0,1,6.95-11.38c9.43-10,23.53-9.17,32.23,1.44,6.22,7.59,9,16.43,10,25.88.28,2.69.36,5.4.54,8.1C483.09,175.3,481.5,185.31,476,194.43Zm50-3.73a27.17,27.17,0,0,1-5.8,9.33c-5,5.42-11.77,5.06-16.69-.42-1.23-1.37-2.3-2.88-4-5,0,1.7,0,2.67,0,3.64.19,10.38.31,20.77.63,31.14.07,2.41-.75,3.29-3.16,3.33a44.93,44.93,0,0,0-6.76.6c-2.29.4-3.06-.27-3.07-2.53,0-7.94-.3-15.88-.43-23.82-.41-25.83-.76-51.66-1.25-77.49-.05-2.56.63-3.47,3.33-3.09a52.27,52.27,0,0,0,6.51.31c1.48,0,2.14.69,2.13,2.08,0,2.14,0,4.27,0,6.87a74.52,74.52,0,0,1,5.67-6.71c3.92-3.68,8.87-4,13.4-1a22.79,22.79,0,0,1,9.06,12.42C531.05,157,531.71,173.91,526,190.7Z" transform="translate(-47.05 -5.11)"/><path class="cls-1" d="M376,69.55c4.11,2.72,9.1,1.51,11.14-2.86a12,12,0,0,0,.86-4.8c.08-6.78-.67-13.61,2-20.17C395.2,29,408.35,18.86,426.32,24.06c9.21,2.67,15.55,8.7,20.42,16.33,4.47,7,6,14.71,5.61,22.85,0,3-.37,6.14.09,9.13a8.74,8.74,0,0,0,9.21,7.55c4-.36,6.71-3.73,7-8.7a9.2,9.2,0,0,0,0-1c-.2-4.52-.21-9.07-.64-13.57-1.54-16.22-8.49-29.91-21.66-40.2C435.21,7.72,422.62,3,408,6c-16.77,3.4-27.32,13.55-33.11,28.71-3.42,8.94-3.61,18.29-3.25,27.64A9.06,9.06,0,0,0,376,69.55Z" transform="translate(-47.05 -5.11)"/><path class="cls-1" d="M517.74,163c-.27-5.95-.6-11.9-3.82-17.23-1.37-2.26-3.1-4.16-6.13-4.12a6.39,6.39,0,0,0-6,4.32,33.37,33.37,0,0,0-2.64,9.24c-.93,9.09-.85,18.17,3,26.77,1.31,2.93,3.23,5.77,7.09,5.59s5.34-3.43,6.72-6.41a2.75,2.75,0,0,0,.2-.76l2.1-14.72-.58-.06C517.75,164.74,517.79,163.87,517.74,163Z" transform="translate(-47.05 -5.11)"/><path class="cls-1" d="M462.88,143c-3.66-4.16-9.07-3.94-12.58.37a18.91,18.91,0,0,0-3.73,6.85c-1.14,4.45-1.59,9.06-2.33,13.6l.44.08c.1,2.08.11,4.18.31,6.26.52,5.25,1.63,10.34,4.93,14.74,4,5.3,10.65,5.32,14.5-.06a19.26,19.26,0,0,0,2.7-5.08,48.17,48.17,0,0,0,.24-28.86A21.61,21.61,0,0,0,462.88,143Z" transform="translate(-47.05 -5.11)"/></svg>